<?xml version="1.0" standalone="no"?>
<!DOCTYPE svg PUBLIC "-//W3C//DTD SVG 20010904//EN"
 "http://www.w3.org/TR/2001/REC-SVG-20010904/DTD/svg10.dtd">
<svg version="1.0" xmlns="http://www.w3.org/2000/svg"
 width="78.000000pt" height="78.000000pt" viewBox="0 0 78.000000 78.000000"
 preserveAspectRatio="xMidYMid meet">
<metadata>
Created by potrace 1.14, written by Peter Selinger 2001-2017
</metadata>
<g transform="translate(0.000000,78.000000) scale(0.100000,-0.100000)"
fill="#000000" stroke="none">
<path d="M260 756 c-30 -7 -68 -19 -84 -28 l-29 -15 24 -15 c59 -37 302 -178
305 -178 2 0 4 44 4 99 0 107 -2 112 -60 129 -60 18 -103 20 -160 8z"/>
<path d="M559 743 c-1 -5 0 -26 1 -48 l2 -40 -26 24 -26 24 -1 -29 c0 -16 -1
-102 -2 -191 l-2 -162 30 18 c17 10 69 41 117 70 l86 51 0 145 0 145 -89 0
c-49 0 -89 -3 -90 -7z"/>
<path d="M95 663 c-47 -50 -84 -137 -90 -211 -3 -41 -12 -44 160 56 l136 80
-84 51 c-47 28 -87 51 -90 51 -4 0 -18 -12 -32 -27z"/>
<path d="M72 425 l-72 -40 5 -50 c8 -76 45 -159 92 -212 23 -26 45 -44 48 -41
3 3 4 90 3 194 l-3 189 -73 -40z"/>
<path d="M542 313 l-183 -107 23 -18 c13 -9 34 -23 48 -30 14 -7 41 -22 61
-35 34 -20 37 -20 53 -5 17 16 17 15 16 -18 -4 -71 -8 -67 88 -66 l87 1 2 193
c1 105 -1 192 -5 192 -4 0 -89 -49 -190 -107z"/>
<path d="M179 263 c-1 -8 -1 -178 0 -200 2 -38 194 -51 263 -19 71 34 70 36
-94 132 -171 100 -168 99 -169 87z"/>
</g>
</svg>
